<mxfile host="app.diagrams.net" modified="2024-01-24T05:26:36.404Z" agent="Mozilla/5.0 (Windows NT 10.0; Win64; x64) AppleWebKit/537.36 (KHTML, like Gecko) Chrome/120.0.0.0 Safari/537.36 Edg/120.0.0.0" version="22.1.20" etag="fCMXGNcS97PcHtdvdJbS" type="github">
  <diagram name="Страница — 1" id="jnA9IoU5_KKRDdtGOCp6">
    <mxGraphModel>
      <root>
        <mxCell id="0" />
        <mxCell id="1" parent="0" />
      </root>
    </mxGraphModel>
  </diagram>
</mxfile>
